<mxfile host="app.diagrams.net" modified="2023-10-14T05:05:18.462Z" agent="Mozilla/5.0 (X11; Linux x86_64; rv:109.0) Gecko/20100101 Firefox/118.0" etag="pSWVOefgStmOePaYKtWA" version="22.0.4" type="github" pages="6">
  <diagram name="Servidor" id="ynFxNo4VnXaIg0oJXaSw">
    <mxGraphModel dx="940" dy="525" grid="1" gridSize="10" guides="1" tooltips="1" connect="1" arrows="1" fold="1" page="1" pageScale="1" pageWidth="850" pageHeight="1100" math="0" shadow="0">
      <root>
        <mxCell id="0" />
        <mxCell id="1" parent="0" />
        <mxCell id="qft5Hnbvip94xZei00_H-5" value="" style="edgeStyle=orthogonalEdgeStyle;rounded=0;orthogonalLoop=1;jettySize=auto;html=1;" edge="1" parent="1" source="qft5Hnbvip94xZei00_H-2" target="COrj-0BqQYtJM2jaXJOM-63">
          <mxGeometry relative="1" as="geometry" />
        </mxCell>
        <mxCell id="COrj-0BqQYtJM2jaXJOM-3" value="&lt;b&gt;&lt;font style=&quot;font-size: 20px;&quot;&gt;Servidor&lt;/font&gt;&lt;/b&gt;" style="text;html=1;strokeColor=none;fillColor=none;align=center;verticalAlign=middle;whiteSpace=wrap;rounded=0;" vertex="1" parent="1">
          <mxGeometry x="170" y="45" width="60" height="30" as="geometry" />
        </mxCell>
        <mxCell id="COrj-0BqQYtJM2jaXJOM-72" value="Inicie" style="ellipse;whiteSpace=wrap;html=1;" vertex="1" parent="1">
          <mxGeometry x="248" y="40" width="40" height="40" as="geometry" />
        </mxCell>
        <mxCell id="COrj-0BqQYtJM2jaXJOM-187" value="Registre o Log Handler" style="rounded=1;whiteSpace=wrap;html=1;fillColor=#cdeb8b;strokeColor=#36393d;" vertex="1" parent="1">
          <mxGeometry x="208" y="120" width="120" height="40" as="geometry" />
        </mxCell>
        <mxCell id="COrj-0BqQYtJM2jaXJOM-189" value="" style="edgeStyle=orthogonalEdgeStyle;rounded=0;orthogonalLoop=1;jettySize=auto;html=1;" edge="1" parent="1" source="COrj-0BqQYtJM2jaXJOM-72" target="COrj-0BqQYtJM2jaXJOM-187">
          <mxGeometry relative="1" as="geometry" />
        </mxCell>
        <mxCell id="qft5Hnbvip94xZei00_H-2" value="Registre o Watchdog" style="rounded=1;whiteSpace=wrap;html=1;fillColor=#b0e3e6;strokeColor=#0e8088;" vertex="1" parent="1">
          <mxGeometry x="208" y="200" width="120" height="40" as="geometry" />
        </mxCell>
        <mxCell id="qft5Hnbvip94xZei00_H-3" value="" style="edgeStyle=orthogonalEdgeStyle;rounded=0;orthogonalLoop=1;jettySize=auto;html=1;" edge="1" parent="1" source="COrj-0BqQYtJM2jaXJOM-187" target="qft5Hnbvip94xZei00_H-2">
          <mxGeometry relative="1" as="geometry" />
        </mxCell>
        <mxCell id="qft5Hnbvip94xZei00_H-4" value="Para os sockets" style="text;html=1;strokeColor=none;fillColor=none;align=center;verticalAlign=middle;whiteSpace=wrap;rounded=0;" vertex="1" parent="1">
          <mxGeometry x="328" y="205" width="105" height="30" as="geometry" />
        </mxCell>
        <mxCell id="COrj-0BqQYtJM2jaXJOM-262" value="Transmissão" style="swimlane;whiteSpace=wrap;html=1;" vertex="1" parent="1">
          <mxGeometry x="523" y="560" width="320" height="430" as="geometry" />
        </mxCell>
        <mxCell id="3zjMSeszQZtajCH8VEYc-3" style="edgeStyle=orthogonalEdgeStyle;rounded=0;orthogonalLoop=1;jettySize=auto;html=1;exitX=0.5;exitY=1;exitDx=0;exitDy=0;entryX=0.5;entryY=0;entryDx=0;entryDy=0;" edge="1" parent="COrj-0BqQYtJM2jaXJOM-262" source="COrj-0BqQYtJM2jaXJOM-240" target="3zjMSeszQZtajCH8VEYc-2">
          <mxGeometry relative="1" as="geometry" />
        </mxCell>
        <mxCell id="COrj-0BqQYtJM2jaXJOM-240" value="Transmita o filme" style="rounded=1;whiteSpace=wrap;html=1;fillColor=#fad7ac;strokeColor=#b46504;" vertex="1" parent="COrj-0BqQYtJM2jaXJOM-262">
          <mxGeometry x="180" y="50" width="120" height="40" as="geometry" />
        </mxCell>
        <mxCell id="COrj-0BqQYtJM2jaXJOM-279" style="edgeStyle=orthogonalEdgeStyle;rounded=0;orthogonalLoop=1;jettySize=auto;html=1;exitX=1;exitY=0.25;exitDx=0;exitDy=0;entryX=0;entryY=0.5;entryDx=0;entryDy=0;" edge="1" parent="COrj-0BqQYtJM2jaXJOM-262" source="COrj-0BqQYtJM2jaXJOM-242" target="COrj-0BqQYtJM2jaXJOM-240">
          <mxGeometry relative="1" as="geometry">
            <Array as="points">
              <mxPoint x="150" y="220" />
              <mxPoint x="150" y="70" />
            </Array>
          </mxGeometry>
        </mxCell>
        <mxCell id="COrj-0BqQYtJM2jaXJOM-242" value="Registre o handler para SIGINT" style="rounded=1;whiteSpace=wrap;html=1;fillColor=#e1d5e7;strokeColor=#9673a6;" vertex="1" parent="COrj-0BqQYtJM2jaXJOM-262">
          <mxGeometry x="20" y="210" width="120" height="40" as="geometry" />
        </mxCell>
        <mxCell id="3zjMSeszQZtajCH8VEYc-1" style="edgeStyle=orthogonalEdgeStyle;rounded=0;orthogonalLoop=1;jettySize=auto;html=1;exitX=1;exitY=0.5;exitDx=0;exitDy=0;entryX=0;entryY=0.5;entryDx=0;entryDy=0;" edge="1" parent="COrj-0BqQYtJM2jaXJOM-262" source="COrj-0BqQYtJM2jaXJOM-243" target="COrj-0BqQYtJM2jaXJOM-245">
          <mxGeometry relative="1" as="geometry" />
        </mxCell>
        <mxCell id="COrj-0BqQYtJM2jaXJOM-243" value="SIGINT recebido" style="rounded=1;whiteSpace=wrap;html=1;fillColor=#e1d5e7;strokeColor=#9673a6;" vertex="1" parent="COrj-0BqQYtJM2jaXJOM-262">
          <mxGeometry x="20" y="290" width="120" height="40" as="geometry" />
        </mxCell>
        <mxCell id="COrj-0BqQYtJM2jaXJOM-251" style="edgeStyle=orthogonalEdgeStyle;rounded=0;orthogonalLoop=1;jettySize=auto;html=1;exitX=0.5;exitY=1;exitDx=0;exitDy=0;entryX=0.5;entryY=0;entryDx=0;entryDy=0;" edge="1" parent="COrj-0BqQYtJM2jaXJOM-262" source="COrj-0BqQYtJM2jaXJOM-242" target="COrj-0BqQYtJM2jaXJOM-243">
          <mxGeometry relative="1" as="geometry" />
        </mxCell>
        <mxCell id="COrj-0BqQYtJM2jaXJOM-285" value="" style="edgeStyle=orthogonalEdgeStyle;rounded=0;orthogonalLoop=1;jettySize=auto;html=1;" edge="1" parent="COrj-0BqQYtJM2jaXJOM-262" source="COrj-0BqQYtJM2jaXJOM-244" target="COrj-0BqQYtJM2jaXJOM-284">
          <mxGeometry relative="1" as="geometry" />
        </mxCell>
        <mxCell id="COrj-0BqQYtJM2jaXJOM-244" value="Registre o Log Handler" style="rounded=1;whiteSpace=wrap;html=1;fillColor=#cdeb8b;strokeColor=#36393d;" vertex="1" parent="COrj-0BqQYtJM2jaXJOM-262">
          <mxGeometry x="20" y="50" width="120" height="40" as="geometry" />
        </mxCell>
        <mxCell id="QnFt5wkK03XHZ4fNnrQW-6" value="" style="edgeStyle=orthogonalEdgeStyle;rounded=0;orthogonalLoop=1;jettySize=auto;html=1;" edge="1" parent="COrj-0BqQYtJM2jaXJOM-262" source="COrj-0BqQYtJM2jaXJOM-245" target="QnFt5wkK03XHZ4fNnrQW-5">
          <mxGeometry relative="1" as="geometry" />
        </mxCell>
        <mxCell id="COrj-0BqQYtJM2jaXJOM-245" value="Encerre a conexão com o cliente" style="rounded=1;whiteSpace=wrap;html=1;fillColor=#dae8fc;strokeColor=#6c8ebf;" vertex="1" parent="COrj-0BqQYtJM2jaXJOM-262">
          <mxGeometry x="180" y="210" width="120" height="40" as="geometry" />
        </mxCell>
        <mxCell id="COrj-0BqQYtJM2jaXJOM-241" value="Encerre" style="rounded=1;whiteSpace=wrap;html=1;" vertex="1" parent="COrj-0BqQYtJM2jaXJOM-262">
          <mxGeometry x="180" y="370" width="120" height="40" as="geometry" />
        </mxCell>
        <mxCell id="COrj-0BqQYtJM2jaXJOM-287" style="edgeStyle=orthogonalEdgeStyle;rounded=0;orthogonalLoop=1;jettySize=auto;html=1;exitX=0.5;exitY=1;exitDx=0;exitDy=0;entryX=0.5;entryY=0;entryDx=0;entryDy=0;" edge="1" parent="COrj-0BqQYtJM2jaXJOM-262" source="COrj-0BqQYtJM2jaXJOM-284" target="COrj-0BqQYtJM2jaXJOM-242">
          <mxGeometry relative="1" as="geometry" />
        </mxCell>
        <mxCell id="COrj-0BqQYtJM2jaXJOM-284" value="Registre o Watchdog" style="rounded=1;whiteSpace=wrap;html=1;fillColor=#b0e3e6;strokeColor=#0e8088;" vertex="1" parent="COrj-0BqQYtJM2jaXJOM-262">
          <mxGeometry x="20" y="130" width="120" height="40" as="geometry" />
        </mxCell>
        <mxCell id="3zjMSeszQZtajCH8VEYc-4" style="edgeStyle=orthogonalEdgeStyle;rounded=0;orthogonalLoop=1;jettySize=auto;html=1;exitX=0.5;exitY=1;exitDx=0;exitDy=0;entryX=0.5;entryY=0;entryDx=0;entryDy=0;" edge="1" parent="COrj-0BqQYtJM2jaXJOM-262" source="3zjMSeszQZtajCH8VEYc-2" target="COrj-0BqQYtJM2jaXJOM-245">
          <mxGeometry relative="1" as="geometry" />
        </mxCell>
        <mxCell id="3zjMSeszQZtajCH8VEYc-2" value="Feche o socket do servidor" style="rounded=1;whiteSpace=wrap;html=1;" vertex="1" parent="COrj-0BqQYtJM2jaXJOM-262">
          <mxGeometry x="180" y="130" width="120" height="40" as="geometry" />
        </mxCell>
        <mxCell id="QnFt5wkK03XHZ4fNnrQW-7" value="" style="edgeStyle=orthogonalEdgeStyle;rounded=0;orthogonalLoop=1;jettySize=auto;html=1;" edge="1" parent="COrj-0BqQYtJM2jaXJOM-262" source="QnFt5wkK03XHZ4fNnrQW-5" target="COrj-0BqQYtJM2jaXJOM-241">
          <mxGeometry relative="1" as="geometry" />
        </mxCell>
        <mxCell id="QnFt5wkK03XHZ4fNnrQW-5" value="Feche o log" style="rounded=1;whiteSpace=wrap;html=1;fillColor=#cdeb8b;strokeColor=#36393d;" vertex="1" parent="COrj-0BqQYtJM2jaXJOM-262">
          <mxGeometry x="180" y="290" width="120" height="40" as="geometry" />
        </mxCell>
        <mxCell id="COrj-0BqQYtJM2jaXJOM-4" value="Abra o socket UDP" style="rounded=1;whiteSpace=wrap;html=1;" vertex="1" parent="1">
          <mxGeometry x="368" y="280" width="120" height="40" as="geometry" />
        </mxCell>
        <mxCell id="COrj-0BqQYtJM2jaXJOM-7" value="Espere um pacote" style="rounded=1;whiteSpace=wrap;html=1;" vertex="1" parent="1">
          <mxGeometry x="368" y="360" width="120" height="40" as="geometry" />
        </mxCell>
        <mxCell id="COrj-0BqQYtJM2jaXJOM-67" style="edgeStyle=orthogonalEdgeStyle;rounded=0;orthogonalLoop=1;jettySize=auto;html=1;exitX=0.5;exitY=1;exitDx=0;exitDy=0;" edge="1" parent="1" source="COrj-0BqQYtJM2jaXJOM-4" target="COrj-0BqQYtJM2jaXJOM-7">
          <mxGeometry relative="1" as="geometry" />
        </mxCell>
        <mxCell id="COrj-0BqQYtJM2jaXJOM-24" value="Trate o pacote" style="rounded=1;whiteSpace=wrap;html=1;fillColor=#dae8fc;strokeColor=#6c8ebf;" vertex="1" parent="1">
          <mxGeometry x="368" y="440" width="120" height="40" as="geometry" />
        </mxCell>
        <mxCell id="COrj-0BqQYtJM2jaXJOM-76" value="" style="edgeStyle=orthogonalEdgeStyle;rounded=0;orthogonalLoop=1;jettySize=auto;html=1;" edge="1" parent="1" source="COrj-0BqQYtJM2jaXJOM-7" target="COrj-0BqQYtJM2jaXJOM-24">
          <mxGeometry relative="1" as="geometry" />
        </mxCell>
        <mxCell id="COrj-0BqQYtJM2jaXJOM-146" value="" style="edgeStyle=orthogonalEdgeStyle;rounded=0;orthogonalLoop=1;jettySize=auto;html=1;" edge="1" parent="1" source="COrj-0BqQYtJM2jaXJOM-63" target="COrj-0BqQYtJM2jaXJOM-4">
          <mxGeometry relative="1" as="geometry" />
        </mxCell>
        <mxCell id="COrj-0BqQYtJM2jaXJOM-63" value="Registre o handler para SIGINT" style="rounded=1;whiteSpace=wrap;html=1;fillColor=#e1d5e7;strokeColor=#9673a6;" vertex="1" parent="1">
          <mxGeometry x="208" y="280" width="120" height="40" as="geometry" />
        </mxCell>
        <mxCell id="J2QjuuRLrta_Hf156Bu2-13" style="edgeStyle=orthogonalEdgeStyle;rounded=0;orthogonalLoop=1;jettySize=auto;html=1;exitX=1;exitY=0.5;exitDx=0;exitDy=0;" edge="1" parent="1" source="COrj-0BqQYtJM2jaXJOM-144" target="COrj-0BqQYtJM2jaXJOM-244">
          <mxGeometry relative="1" as="geometry" />
        </mxCell>
        <mxCell id="COrj-0BqQYtJM2jaXJOM-144" value="Inicie uma nova transmissão" style="shape=process;whiteSpace=wrap;html=1;backgroundOutline=1;fillColor=#fad7ac;strokeColor=#b46504;" vertex="1" parent="1">
          <mxGeometry x="368" y="610" width="120" height="40" as="geometry" />
        </mxCell>
        <mxCell id="COrj-0BqQYtJM2jaXJOM-194" value="Handler SIGINT" style="swimlane;whiteSpace=wrap;html=1;startSize=23;" vertex="1" parent="1">
          <mxGeometry x="30" y="320" width="160" height="420" as="geometry" />
        </mxCell>
        <mxCell id="COrj-0BqQYtJM2jaXJOM-60" value="Encerre" style="rounded=1;whiteSpace=wrap;html=1;" vertex="1" parent="COrj-0BqQYtJM2jaXJOM-194">
          <mxGeometry x="20" y="360" width="120" height="40" as="geometry" />
        </mxCell>
        <mxCell id="QnFt5wkK03XHZ4fNnrQW-2" value="" style="edgeStyle=orthogonalEdgeStyle;rounded=0;orthogonalLoop=1;jettySize=auto;html=1;" edge="1" parent="COrj-0BqQYtJM2jaXJOM-194" source="COrj-0BqQYtJM2jaXJOM-79" target="QnFt5wkK03XHZ4fNnrQW-1">
          <mxGeometry relative="1" as="geometry" />
        </mxCell>
        <mxCell id="COrj-0BqQYtJM2jaXJOM-79" value="Feche o socket UDP" style="rounded=1;whiteSpace=wrap;html=1;" vertex="1" parent="COrj-0BqQYtJM2jaXJOM-194">
          <mxGeometry x="20" y="200" width="120" height="40" as="geometry" />
        </mxCell>
        <mxCell id="COrj-0BqQYtJM2jaXJOM-113" value="Espere os filhos encerrarem" style="rounded=1;whiteSpace=wrap;html=1;fillColor=#e1d5e7;strokeColor=#9673a6;" vertex="1" parent="COrj-0BqQYtJM2jaXJOM-194">
          <mxGeometry x="20" y="40" width="120" height="40" as="geometry" />
        </mxCell>
        <mxCell id="COrj-0BqQYtJM2jaXJOM-127" value="" style="edgeStyle=orthogonalEdgeStyle;rounded=0;orthogonalLoop=1;jettySize=auto;html=1;" edge="1" parent="COrj-0BqQYtJM2jaXJOM-194" source="COrj-0BqQYtJM2jaXJOM-125" target="COrj-0BqQYtJM2jaXJOM-79">
          <mxGeometry relative="1" as="geometry" />
        </mxCell>
        <mxCell id="COrj-0BqQYtJM2jaXJOM-125" value="Todos os filhos encerraram" style="rounded=1;whiteSpace=wrap;html=1;fillColor=#e1d5e7;strokeColor=#9673a6;" vertex="1" parent="COrj-0BqQYtJM2jaXJOM-194">
          <mxGeometry x="20" y="120" width="120" height="40" as="geometry" />
        </mxCell>
        <mxCell id="COrj-0BqQYtJM2jaXJOM-126" value="" style="edgeStyle=orthogonalEdgeStyle;rounded=0;orthogonalLoop=1;jettySize=auto;html=1;" edge="1" parent="COrj-0BqQYtJM2jaXJOM-194" source="COrj-0BqQYtJM2jaXJOM-113" target="COrj-0BqQYtJM2jaXJOM-125">
          <mxGeometry relative="1" as="geometry" />
        </mxCell>
        <mxCell id="QnFt5wkK03XHZ4fNnrQW-3" value="" style="edgeStyle=orthogonalEdgeStyle;rounded=0;orthogonalLoop=1;jettySize=auto;html=1;" edge="1" parent="COrj-0BqQYtJM2jaXJOM-194" source="QnFt5wkK03XHZ4fNnrQW-1" target="COrj-0BqQYtJM2jaXJOM-60">
          <mxGeometry relative="1" as="geometry" />
        </mxCell>
        <mxCell id="QnFt5wkK03XHZ4fNnrQW-1" value="Feche o log" style="rounded=1;whiteSpace=wrap;html=1;fillColor=#cdeb8b;strokeColor=#36393d;" vertex="1" parent="COrj-0BqQYtJM2jaXJOM-194">
          <mxGeometry x="20" y="280" width="120" height="40" as="geometry" />
        </mxCell>
        <mxCell id="qft5Hnbvip94xZei00_H-7" value="" style="edgeStyle=orthogonalEdgeStyle;rounded=0;orthogonalLoop=1;jettySize=auto;html=1;" edge="1" parent="1" source="COrj-0BqQYtJM2jaXJOM-64" target="COrj-0BqQYtJM2jaXJOM-113">
          <mxGeometry relative="1" as="geometry" />
        </mxCell>
        <mxCell id="COrj-0BqQYtJM2jaXJOM-64" value="SIGINT recebido" style="rounded=1;whiteSpace=wrap;html=1;fillColor=#e1d5e7;strokeColor=#9673a6;" vertex="1" parent="1">
          <mxGeometry x="208" y="360" width="120" height="40" as="geometry" />
        </mxCell>
        <mxCell id="COrj-0BqQYtJM2jaXJOM-197" value="" style="edgeStyle=orthogonalEdgeStyle;rounded=0;orthogonalLoop=1;jettySize=auto;html=1;" edge="1" parent="1" source="COrj-0BqQYtJM2jaXJOM-63" target="COrj-0BqQYtJM2jaXJOM-64">
          <mxGeometry relative="1" as="geometry" />
        </mxCell>
        <mxCell id="COrj-0BqQYtJM2jaXJOM-221" value="&lt;ul&gt;&lt;li&gt;Porta para o stream&lt;/li&gt;&lt;li&gt;Fimes disponíveis&lt;/li&gt;&lt;li&gt;Qual filme transmitir&lt;/li&gt;&lt;li&gt;Timeout entre msg&lt;br&gt;&lt;/li&gt;&lt;/ul&gt;" style="text;html=1;whiteSpace=wrap;verticalAlign=middle;overflow=hidden;" vertex="1" parent="1">
          <mxGeometry x="463" y="420" width="160" height="80" as="geometry" />
        </mxCell>
        <mxCell id="J2QjuuRLrta_Hf156Bu2-11" style="edgeStyle=orthogonalEdgeStyle;rounded=0;orthogonalLoop=1;jettySize=auto;html=1;exitX=0;exitY=0.5;exitDx=0;exitDy=0;entryX=0;entryY=0.5;entryDx=0;entryDy=0;" edge="1" parent="1" source="J2QjuuRLrta_Hf156Bu2-1" target="COrj-0BqQYtJM2jaXJOM-7">
          <mxGeometry relative="1" as="geometry" />
        </mxCell>
        <mxCell id="J2QjuuRLrta_Hf156Bu2-1" value="Feche o socket do cliente" style="rounded=1;whiteSpace=wrap;html=1;" vertex="1" parent="1">
          <mxGeometry x="368" y="690" width="120" height="40" as="geometry" />
        </mxCell>
        <mxCell id="J2QjuuRLrta_Hf156Bu2-2" value="" style="edgeStyle=orthogonalEdgeStyle;rounded=0;orthogonalLoop=1;jettySize=auto;html=1;" edge="1" parent="1" source="COrj-0BqQYtJM2jaXJOM-144" target="J2QjuuRLrta_Hf156Bu2-1">
          <mxGeometry relative="1" as="geometry" />
        </mxCell>
        <mxCell id="J2QjuuRLrta_Hf156Bu2-9" value="Sim" style="edgeStyle=orthogonalEdgeStyle;rounded=0;orthogonalLoop=1;jettySize=auto;html=1;exitX=0.5;exitY=1;exitDx=0;exitDy=0;entryX=0.5;entryY=0;entryDx=0;entryDy=0;" edge="1" parent="1" source="J2QjuuRLrta_Hf156Bu2-6" target="COrj-0BqQYtJM2jaXJOM-144">
          <mxGeometry relative="1" as="geometry">
            <mxPoint as="offset" />
          </mxGeometry>
        </mxCell>
        <mxCell id="J2QjuuRLrta_Hf156Bu2-10" value="Não" style="edgeStyle=orthogonalEdgeStyle;rounded=0;orthogonalLoop=1;jettySize=auto;html=1;exitX=0;exitY=0.5;exitDx=0;exitDy=0;entryX=0;entryY=0.5;entryDx=0;entryDy=0;" edge="1" parent="1" source="J2QjuuRLrta_Hf156Bu2-6" target="COrj-0BqQYtJM2jaXJOM-7">
          <mxGeometry x="-0.8641" relative="1" as="geometry">
            <mxPoint as="offset" />
          </mxGeometry>
        </mxCell>
        <mxCell id="J2QjuuRLrta_Hf156Bu2-6" value="Terminou um handshake?" style="rhombus;whiteSpace=wrap;html=1;fillColor=#dae8fc;strokeColor=#6c8ebf;" vertex="1" parent="1">
          <mxGeometry x="374" y="510" width="108" height="60" as="geometry" />
        </mxCell>
        <mxCell id="J2QjuuRLrta_Hf156Bu2-7" value="" style="edgeStyle=orthogonalEdgeStyle;rounded=0;orthogonalLoop=1;jettySize=auto;html=1;" edge="1" parent="1" source="COrj-0BqQYtJM2jaXJOM-24" target="J2QjuuRLrta_Hf156Bu2-6">
          <mxGeometry relative="1" as="geometry" />
        </mxCell>
      </root>
    </mxGraphModel>
  </diagram>
  <diagram id="cRhqbxnuGs25eqWRTptj" name="Cliente">
    <mxGraphModel dx="1367" dy="764" grid="1" gridSize="10" guides="1" tooltips="1" connect="1" arrows="1" fold="1" page="1" pageScale="1" pageWidth="850" pageHeight="1100" math="0" shadow="0">
      <root>
        <mxCell id="0" />
        <mxCell id="1" parent="0" />
        <mxCell id="Ms9sXYZkO5R6gPoVdBhs-1" value="" style="group" vertex="1" connectable="0" parent="1">
          <mxGeometry x="195" y="40" width="460" height="750" as="geometry" />
        </mxCell>
        <mxCell id="Ms9sXYZkO5R6gPoVdBhs-2" value="&lt;ul&gt;&lt;li&gt;Porta para o stream&lt;/li&gt;&lt;li&gt;Fimes disponíveis&lt;/li&gt;&lt;li&gt;Qual filme transmitir&lt;/li&gt;&lt;li&gt;Timeout entre msg&lt;br&gt;&lt;/li&gt;&lt;/ul&gt;" style="text;strokeColor=none;fillColor=none;html=1;whiteSpace=wrap;verticalAlign=middle;overflow=hidden;" vertex="1" parent="Ms9sXYZkO5R6gPoVdBhs-1">
          <mxGeometry x="300" y="380" width="160" height="80" as="geometry" />
        </mxCell>
        <mxCell id="Ms9sXYZkO5R6gPoVdBhs-3" value="&lt;b&gt;&lt;font style=&quot;font-size: 20px;&quot;&gt;Cliente&lt;/font&gt;&lt;/b&gt;" style="text;html=1;strokeColor=none;fillColor=none;align=center;verticalAlign=middle;whiteSpace=wrap;rounded=0;" vertex="1" parent="Ms9sXYZkO5R6gPoVdBhs-1">
          <mxGeometry x="155" y="5" width="60" height="30" as="geometry" />
        </mxCell>
        <mxCell id="Ms9sXYZkO5R6gPoVdBhs-4" value="Abra o socket UDP" style="rounded=1;whiteSpace=wrap;html=1;" vertex="1" parent="Ms9sXYZkO5R6gPoVdBhs-1">
          <mxGeometry x="197.5" y="320" width="120" height="40" as="geometry" />
        </mxCell>
        <mxCell id="Ms9sXYZkO5R6gPoVdBhs-5" value="Realize o handshake" style="rounded=1;whiteSpace=wrap;html=1;fillColor=#dae8fc;strokeColor=#6c8ebf;" vertex="1" parent="Ms9sXYZkO5R6gPoVdBhs-1">
          <mxGeometry x="197.5" y="400" width="120" height="40" as="geometry" />
        </mxCell>
        <mxCell id="Ms9sXYZkO5R6gPoVdBhs-6" value="" style="edgeStyle=orthogonalEdgeStyle;rounded=0;orthogonalLoop=1;jettySize=auto;html=1;" edge="1" parent="Ms9sXYZkO5R6gPoVdBhs-1" source="Ms9sXYZkO5R6gPoVdBhs-4" target="Ms9sXYZkO5R6gPoVdBhs-5">
          <mxGeometry relative="1" as="geometry" />
        </mxCell>
        <mxCell id="Ms9sXYZkO5R6gPoVdBhs-7" value="Assista ao filme" style="rounded=1;whiteSpace=wrap;html=1;fillColor=#fad7ac;strokeColor=#b46504;" vertex="1" parent="Ms9sXYZkO5R6gPoVdBhs-1">
          <mxGeometry x="197.5" y="480" width="120" height="40" as="geometry" />
        </mxCell>
        <mxCell id="Ms9sXYZkO5R6gPoVdBhs-8" value="" style="edgeStyle=orthogonalEdgeStyle;rounded=0;orthogonalLoop=1;jettySize=auto;html=1;" edge="1" parent="Ms9sXYZkO5R6gPoVdBhs-1" source="Ms9sXYZkO5R6gPoVdBhs-5" target="Ms9sXYZkO5R6gPoVdBhs-7">
          <mxGeometry relative="1" as="geometry" />
        </mxCell>
        <mxCell id="Ms9sXYZkO5R6gPoVdBhs-9" value="" style="edgeStyle=orthogonalEdgeStyle;rounded=0;orthogonalLoop=1;jettySize=auto;html=1;" edge="1" parent="Ms9sXYZkO5R6gPoVdBhs-1" source="Ms9sXYZkO5R6gPoVdBhs-10" target="Ms9sXYZkO5R6gPoVdBhs-4">
          <mxGeometry relative="1" as="geometry" />
        </mxCell>
        <mxCell id="Ms9sXYZkO5R6gPoVdBhs-10" value="Registre o handler para SIGINT" style="rounded=1;whiteSpace=wrap;html=1;fillColor=#e1d5e7;strokeColor=#9673a6;" vertex="1" parent="Ms9sXYZkO5R6gPoVdBhs-1">
          <mxGeometry x="197.5" y="240" width="120" height="40" as="geometry" />
        </mxCell>
        <mxCell id="Ms9sXYZkO5R6gPoVdBhs-11" value="Inicie" style="ellipse;whiteSpace=wrap;html=1;" vertex="1" parent="Ms9sXYZkO5R6gPoVdBhs-1">
          <mxGeometry x="235" width="45" height="40" as="geometry" />
        </mxCell>
        <mxCell id="Ms9sXYZkO5R6gPoVdBhs-12" value="" style="edgeStyle=orthogonalEdgeStyle;rounded=0;orthogonalLoop=1;jettySize=auto;html=1;" edge="1" parent="Ms9sXYZkO5R6gPoVdBhs-1" source="Ms9sXYZkO5R6gPoVdBhs-13" target="Ms9sXYZkO5R6gPoVdBhs-28">
          <mxGeometry relative="1" as="geometry" />
        </mxCell>
        <mxCell id="Ms9sXYZkO5R6gPoVdBhs-13" value="Registre o Log Handler" style="rounded=1;whiteSpace=wrap;html=1;fillColor=#cdeb8b;strokeColor=#36393d;" vertex="1" parent="Ms9sXYZkO5R6gPoVdBhs-1">
          <mxGeometry x="197.5" y="80" width="120" height="40" as="geometry" />
        </mxCell>
        <mxCell id="Ms9sXYZkO5R6gPoVdBhs-14" value="" style="edgeStyle=orthogonalEdgeStyle;rounded=0;orthogonalLoop=1;jettySize=auto;html=1;" edge="1" parent="Ms9sXYZkO5R6gPoVdBhs-1" source="Ms9sXYZkO5R6gPoVdBhs-11" target="Ms9sXYZkO5R6gPoVdBhs-13">
          <mxGeometry relative="1" as="geometry" />
        </mxCell>
        <mxCell id="Ms9sXYZkO5R6gPoVdBhs-15" value="Handler SIGINT" style="swimlane;whiteSpace=wrap;html=1;" vertex="1" parent="Ms9sXYZkO5R6gPoVdBhs-1">
          <mxGeometry y="200" width="160" height="500" as="geometry" />
        </mxCell>
        <mxCell id="Ms9sXYZkO5R6gPoVdBhs-16" value="SIGINT recebido" style="rounded=1;whiteSpace=wrap;html=1;fillColor=#e1d5e7;strokeColor=#9673a6;" vertex="1" parent="Ms9sXYZkO5R6gPoVdBhs-15">
          <mxGeometry x="20" y="40" width="120" height="40" as="geometry" />
        </mxCell>
        <mxCell id="Ms9sXYZkO5R6gPoVdBhs-17" value="Encerre" style="rounded=1;whiteSpace=wrap;html=1;" vertex="1" parent="Ms9sXYZkO5R6gPoVdBhs-15">
          <mxGeometry x="20" y="440" width="120" height="40" as="geometry" />
        </mxCell>
        <mxCell id="Ms9sXYZkO5R6gPoVdBhs-18" value="" style="edgeStyle=orthogonalEdgeStyle;rounded=0;orthogonalLoop=1;jettySize=auto;html=1;" edge="1" parent="Ms9sXYZkO5R6gPoVdBhs-15" source="Ms9sXYZkO5R6gPoVdBhs-19" target="Ms9sXYZkO5R6gPoVdBhs-24">
          <mxGeometry relative="1" as="geometry" />
        </mxCell>
        <mxCell id="Ms9sXYZkO5R6gPoVdBhs-19" value="Feche o socket UDP" style="rounded=1;whiteSpace=wrap;html=1;" vertex="1" parent="Ms9sXYZkO5R6gPoVdBhs-15">
          <mxGeometry x="20" y="200" width="120" height="40" as="geometry" />
        </mxCell>
        <mxCell id="Ms9sXYZkO5R6gPoVdBhs-20" style="edgeStyle=orthogonalEdgeStyle;rounded=0;orthogonalLoop=1;jettySize=auto;html=1;exitX=0.5;exitY=1;exitDx=0;exitDy=0;entryX=0.5;entryY=0;entryDx=0;entryDy=0;" edge="1" parent="Ms9sXYZkO5R6gPoVdBhs-15" source="Ms9sXYZkO5R6gPoVdBhs-21" target="Ms9sXYZkO5R6gPoVdBhs-19">
          <mxGeometry relative="1" as="geometry" />
        </mxCell>
        <mxCell id="Ms9sXYZkO5R6gPoVdBhs-21" value="Encerre a conexão com o servidor" style="rounded=1;whiteSpace=wrap;html=1;fillColor=#dae8fc;strokeColor=#6c8ebf;" vertex="1" parent="Ms9sXYZkO5R6gPoVdBhs-15">
          <mxGeometry x="20" y="120" width="120" height="40" as="geometry" />
        </mxCell>
        <mxCell id="Ms9sXYZkO5R6gPoVdBhs-22" style="edgeStyle=orthogonalEdgeStyle;rounded=0;orthogonalLoop=1;jettySize=auto;html=1;exitX=0.5;exitY=1;exitDx=0;exitDy=0;entryX=0.5;entryY=0;entryDx=0;entryDy=0;" edge="1" parent="Ms9sXYZkO5R6gPoVdBhs-15" source="Ms9sXYZkO5R6gPoVdBhs-16" target="Ms9sXYZkO5R6gPoVdBhs-21">
          <mxGeometry relative="1" as="geometry" />
        </mxCell>
        <mxCell id="PB09BEkqLFWnzObLPhrV-3" value="" style="edgeStyle=orthogonalEdgeStyle;rounded=0;orthogonalLoop=1;jettySize=auto;html=1;" edge="1" parent="Ms9sXYZkO5R6gPoVdBhs-15" source="Ms9sXYZkO5R6gPoVdBhs-24" target="PB09BEkqLFWnzObLPhrV-2">
          <mxGeometry relative="1" as="geometry" />
        </mxCell>
        <mxCell id="Ms9sXYZkO5R6gPoVdBhs-24" value="Gere as estatísticas" style="rounded=1;whiteSpace=wrap;html=1;fillColor=#cdeb8b;strokeColor=#36393d;" vertex="1" parent="Ms9sXYZkO5R6gPoVdBhs-15">
          <mxGeometry x="20" y="280" width="120" height="40" as="geometry" />
        </mxCell>
        <mxCell id="PB09BEkqLFWnzObLPhrV-4" value="" style="edgeStyle=orthogonalEdgeStyle;rounded=0;orthogonalLoop=1;jettySize=auto;html=1;" edge="1" parent="Ms9sXYZkO5R6gPoVdBhs-15" source="PB09BEkqLFWnzObLPhrV-2" target="Ms9sXYZkO5R6gPoVdBhs-17">
          <mxGeometry relative="1" as="geometry" />
        </mxCell>
        <mxCell id="PB09BEkqLFWnzObLPhrV-2" value="Feche o log" style="rounded=1;whiteSpace=wrap;html=1;fillColor=#cdeb8b;strokeColor=#36393d;" vertex="1" parent="Ms9sXYZkO5R6gPoVdBhs-15">
          <mxGeometry x="20" y="360" width="120" height="40" as="geometry" />
        </mxCell>
        <mxCell id="Ms9sXYZkO5R6gPoVdBhs-25" style="edgeStyle=orthogonalEdgeStyle;rounded=0;orthogonalLoop=1;jettySize=auto;html=1;exitX=0;exitY=0.5;exitDx=0;exitDy=0;" edge="1" parent="Ms9sXYZkO5R6gPoVdBhs-1" source="Ms9sXYZkO5R6gPoVdBhs-10" target="Ms9sXYZkO5R6gPoVdBhs-16">
          <mxGeometry relative="1" as="geometry" />
        </mxCell>
        <mxCell id="Ms9sXYZkO5R6gPoVdBhs-26" style="edgeStyle=orthogonalEdgeStyle;rounded=0;orthogonalLoop=1;jettySize=auto;html=1;exitX=0;exitY=0.5;exitDx=0;exitDy=0;entryX=1;entryY=0.5;entryDx=0;entryDy=0;" edge="1" parent="Ms9sXYZkO5R6gPoVdBhs-1" source="Ms9sXYZkO5R6gPoVdBhs-7" target="Ms9sXYZkO5R6gPoVdBhs-21">
          <mxGeometry relative="1" as="geometry">
            <Array as="points">
              <mxPoint x="180" y="500" />
              <mxPoint x="180" y="340" />
            </Array>
          </mxGeometry>
        </mxCell>
        <mxCell id="Ms9sXYZkO5R6gPoVdBhs-27" style="edgeStyle=orthogonalEdgeStyle;rounded=0;orthogonalLoop=1;jettySize=auto;html=1;exitX=0.5;exitY=1;exitDx=0;exitDy=0;entryX=0.5;entryY=0;entryDx=0;entryDy=0;" edge="1" parent="Ms9sXYZkO5R6gPoVdBhs-1" source="Ms9sXYZkO5R6gPoVdBhs-28" target="Ms9sXYZkO5R6gPoVdBhs-10">
          <mxGeometry relative="1" as="geometry" />
        </mxCell>
        <mxCell id="Ms9sXYZkO5R6gPoVdBhs-28" value="Registre o Watchdog" style="rounded=1;whiteSpace=wrap;html=1;fillColor=#b0e3e6;strokeColor=#0e8088;" vertex="1" parent="Ms9sXYZkO5R6gPoVdBhs-1">
          <mxGeometry x="197.5" y="160" width="120" height="40" as="geometry" />
        </mxCell>
      </root>
    </mxGraphModel>
  </diagram>
  <diagram id="T476w4dxHKIoyT4jfp-Q" name="Conexão">
    <mxGraphModel dx="752" dy="420" grid="1" gridSize="10" guides="1" tooltips="1" connect="1" arrows="1" fold="1" page="1" pageScale="1" pageWidth="850" pageHeight="1100" math="0" shadow="0">
      <root>
        <mxCell id="0" />
        <mxCell id="1" parent="0" />
      </root>
    </mxGraphModel>
  </diagram>
  <diagram id="hgwWhPFhMGh_aFd7M6R4" name="Transmissão">
    <mxGraphModel dx="752" dy="420" grid="1" gridSize="10" guides="1" tooltips="1" connect="1" arrows="1" fold="1" page="1" pageScale="1" pageWidth="850" pageHeight="1100" math="0" shadow="0">
      <root>
        <mxCell id="0" />
        <mxCell id="1" parent="0" />
      </root>
    </mxGraphModel>
  </diagram>
  <diagram id="oEFVGaxRNCSOq0fpEpuu" name="Watchdog">
    <mxGraphModel dx="752" dy="420" grid="1" gridSize="10" guides="1" tooltips="1" connect="1" arrows="1" fold="1" page="1" pageScale="1" pageWidth="850" pageHeight="1100" math="0" shadow="0">
      <root>
        <mxCell id="0" />
        <mxCell id="1" parent="0" />
        <mxCell id="nNY-6-hqQRQLKkR5IcSp-1" value="Para o PID e para o socket(handshake)" style="text;html=1;strokeColor=none;fillColor=none;align=center;verticalAlign=middle;whiteSpace=wrap;rounded=0;" vertex="1" parent="1">
          <mxGeometry x="360" y="210" width="60" height="30" as="geometry" />
        </mxCell>
      </root>
    </mxGraphModel>
  </diagram>
  <diagram id="rj1SsGpW82iGfi64MFSo" name="Log">
    <mxGraphModel dx="752" dy="420" grid="1" gridSize="10" guides="1" tooltips="1" connect="1" arrows="1" fold="1" page="1" pageScale="1" pageWidth="850" pageHeight="1100" math="0" shadow="0">
      <root>
        <mxCell id="0" />
        <mxCell id="1" parent="0" />
        <mxCell id="08bIjT_jDI1CdLGSf_Yg-1" value="Um arquivo por processo, colocar o timestamp" style="text;html=1;strokeColor=none;fillColor=none;align=center;verticalAlign=middle;whiteSpace=wrap;rounded=0;" vertex="1" parent="1">
          <mxGeometry x="350" y="170" width="60" height="30" as="geometry" />
        </mxCell>
      </root>
    </mxGraphModel>
  </diagram>
</mxfile>
